<?xml version="1.0"?><svg xmlns="http://www.w3.org/2000/svg" width="210" height="46" viewBox="0 0 210 46" fill="none" xmlns:c2pa="http://c2pa.org/manifest"><metadata><c2pa:manifest>AAAWgmp1bWIAAAAeanVtZGMycGEAEQAQgAAAqgA4m3EDYzJwYQAAABZcanVtYgAAAEdqdW1kYzJtYQARABCAAACqADibcQN1cm46YzJwYTo4ZWFiYzUzNy0wZTY5LTQ1YTgtYjYzMC0yNWM5MjMyOWNhZTcAAAADl2p1bWIAAAApanVtZGMyYXMAEQAQgAAAqgA4m3EDYzJwYS5hc3NlcnRpb25zAAAAALxqdW1iAAAARGp1bWRjYm9yABEAEIAAAKoAOJtxE2MycGEuaW5ncmVkaWVudC52MwAAAAAYYzJzaMqqnLYouZ2mi62/uJ2hGWIAAABwY2JvcqNpZGM6Zm9ybWF0bWltYWdlL3N2Zyt4bWxqaW5zdGFuY2VJRHgseG1wOmlpZDozZDVhMmI1ZS0zM2U4LTRmZTItYjNmNS00ZGQ0ZGZhOWI1ODdscmVsYXRpb25zaGlwaHBhcmVudE9mAAAB4mp1bWIAAABBanVtZGNib3IAEQAQgAAAqgA4m3ETYzJwYS5hY3Rpb25zLnYyAAAAABhjMnNoxXvTFPTFBLt/HBKy5tjhBAAAAZljYm9yomdhY3Rpb25zgqJmYWN0aW9ua2MycGEub3BlbmVkanBhcmFtZXRlcnOha2luZ3JlZGllbnRzgaJjdXJseC1zZWxmI2p1bWJmPWMycGEuYXNzZXJ0aW9ucy9jMnBhLmluZ3JlZGllbnQudjNkaGFzaFgg1yTMidqAMW2Z55t76wKQ44t10qA4yiXPAQd7X4h8JjWkZmFjdGlvbngdY29tLmFudGhyb3BpYy5jbGF1ZGUucHJvdmlkZWRqcGFyYW1ldGVyc6F4H2NvbS5hbnRocm9waWMub3JpZ2luLWNvbmZpZGVuY2VndW5rbm93bmtkZXNjcmlwdGlvbnhmQ2xhdWRlIHByb3ZpZGVkIHRoaXMgZmlsZSBhdCB0aGUgcmVxdWVzdCBvZiBhIHVzZXIgYW5kIG1heSBoYXZlIGNyZWF0ZWQgb3IgbW9kaWZpZWQgdGhlIGZpbGUgY29udGVudHMubXNvZnR3YXJlQWdlbnShZG5hbWVmQ2xhdWRlcmFsbEFjdGlvbnNJbmNsdWRlZPUAAADIanVtYgAAAEBqdW1kY2JvcgARABCAAACqADibcRNjMnBhLmhhc2guZGF0YQAAAAAYYzJzaNZ04MZpwAqmZa3W5YvQrGUAAACAY2JvcqVjYWxnZnNoYTI1NmNwYWRNAAAAAAAAAAAAAAAAAGRoYXNoWCB09viABnU9zntNskENQZ85k7WmrNDENCBIdcfoQ3pF/WRuYW1lbmp1bWJmIG1hbmlmZXN0amV4Y2x1c2lvbnOBomVzdGFydBi1Zmxlbmd0aBkeBAAAAj5qdW1iAAAAJ2p1bWRjMmNsABEAEIAAAKoAOJtxA2MycGEuY2xhaW0udjIAAAACD2Nib3KlY2FsZ2ZzaGEyNTZpc2lnbmF0dXJleE1zZWxmI2p1bWJmPS9jMnBhL3VybjpjMnBhOjhlYWJjNTM3LTBlNjktNDVhOC1iNjMwLTI1YzkyMzI5Y2FlNy9jMnBhLnNpZ25hdHVyZWppbnN0YW5jZUlEeCx4bXA6aWlkOjA4ZmNjOGUxLWRhYmQtNGRmNy1iZGM3LTM5OWY3Y2Q1MjI4OXJjcmVhdGVkX2Fzc2VydGlvbnODomN1cmx4LXNlbGYjanVtYmY9YzJwYS5hc3NlcnRpb25zL2MycGEuaW5ncmVkaWVudC52M2RoYXNoWCDXJMyJ2oAxbZnnm3vrApDji3XSoDjKJc8BB3tfiHwmNaJjdXJseCpzZWxmI2p1bWJmPWMycGEuYXNzZXJ0aW9ucy9jMnBhLmFjdGlvbnMudjJkaGFzaFggeh7cH0jhx5Gso0IcaQqjeYK+F98PQSLdMltKXerj6M6iY3VybHgpc2VsZiNqdW1iZj1jMnBhLmFzc2VydGlvbnMvYzJwYS5oYXNoLmRhdGFkaGFzaFggcO/rteE6TxXpBMmYNwUKMXtsR0ff3+9lNXr5kdENkdN0Y2xhaW1fZ2VuZXJhdG9yX2luZm+jZG5hbWVvQW50aHJvcGljIEZpbGVzZ3ZlcnNpb25lMS4wLjBrc3BlY1ZlcnNpb25lMi40LjAAABA4anVtYgAAAChqdW1kYzJjcwARABCAAACqADibcQNjMnBhLnNpZ25hdHVyZQAAABAIY2JvctKEWQISogEmGCFZAgowggIGMIIBjaADAgECAhRA5aAK7sI50L64g/oGQgU9Z1UTADAKBggqhkjOPQQDAzBJMRcwFQYDVQQKEw5BbnRocm9waWMsIFBCQzEuMCwGA1UEAxMlQW50aHJvcGljIENvbnRlbnQgQ3JlZGVudGlhbHMgUm9vdCBDQTAeFw0yNjA4MDcxODQzNTZaFw0yODA4MDYxOTQzNTZaMEQxFzAVBgNVBAoTDkFudGhyb3BpYywgUEJDMSkwJwYDVQQDEyBBbnRocm9waWMgQ2xhdWRlIENvbnRlbnQgU2lnbmluZzBZMBMGByqGSM49AgEGCCqGSM49AwEHA0IABJh6CmvLUBgFFNU0vUKlOVtE6djd17L5SuwX0LemFisBM3dkd/3cyjxFA3Qo5S46fX0/ihY0VZ7mfb9KF703t5OjWDBWMA4GA1UdDwEB/wQEAwIHgDAVBgNVHSUEDjAMBgorBgEEAYPoXgIBMAwGA1UdEwEB/wQCMAAwHwYDVR0jBBgwFoAUzlHiBIFOZFsj+OPEz5o+nMHXXMIwCgYIKoZIzj0EAwMDZwAwZAIwMXMdFJ4BetLLVY7ORuE9noqbbAZOZn/aArXyTwFAZfKrPzxF2vPoJNf1+UCdg1XGAjBwX1zd9WGqYkqmL5SFqw1QySjr1zJfpJM9+1rdDwSPLMOPOjKuiXjoU/pUUeG9RwmhY3BhZFkNngAAAAAAAAAAAAAAAAAAAAAAAAAAAAAAAAAAAAAAAAAAAAAAAAAAAAAAAAAAAAAAAAAAAAAAAAAAAAAAAAAAAAAAAAAAAAAAAAAAAAAAAAAAAAAAAAAAAAAAAAAAAAAAAAAAAAAAAAAAAAAAAAAAAAAAAAAAAAAAAAAAAAAAAAAAAAAAAAAAAAAAAAAAAAAAAAAAAAAAAAAAAAAAAAAAAAAAAAAAAAAAAAAAAAAAAAAAAAAAAAAAAAAAAAAAAAAAAAAAAAAAAAAAAAAAAAAAAAAAAAAAAAAAAAAAAAAAAAAAAAAAAAAAAAAAAAAAAAAAAAAAAAAAAAAAAAAAAAAAAAAAAAAAAAAAAAAAAAAAAAAAAAAAAAAAAAAAAAAAAAAAAAAAAAAAAAAAAAAAAAAAAAAAAAAAAAAAAAAAAAAAAAAAAAAAAAAAAAAAAAAAAAAAAAAAAAAAAAAAAAAAAAAAAAAAAAAAAAAAAAAAAAAAAAAAAAAAAAAAAAAAAAAAAAAAAAAAAAAAAAAAAAAAAAAAAAAAAAAAAAAAAAAAAAAAAAAAAAAAAAAAAAAAAAAAAAAAAAAAAAAAAAAAAAAAAAAAAAAAAAAAAAAAAAAAAAAAAAAAAAAAAAAAAAAAAAAAAAAAAAAAAAAAAAAAAAAAAAAAAAAAAAAAAAAAAAAAAAAAAAAAAAAAAAAAAAAAAAAAAAAAAAAAAAAAAAAAAAAAAAAAAAAAAAAAAAAAAAAAAAAAAAAAAAAAAAAAAAAAAAAAAAAAAAAAAAAAAAAAAAAAAAAAAAAAAAAAAAAAAAAAAAAAAAAAAAAAAAAAAAAAAAAAAAAAAAAAAAAAAAAAAAAAAAAAAAAAAAAAAAAAAAAAAAAAAAAAAAAAAAAAAAAAAAAAAAAAAAAAAAAAAAAAAAAAAAAAAAAAAAAAAAAAAAAAAAAAAAAAAAAAAAAAAAAAAAAAAAAAAAAAAAAAAAAAAAAAAAAAAAAAAAAAAAAAAAAAAAAAAAAAAAAAAAAAAAAAAAAAAAAAAAAAAAAAAAAAAAAAAAAAAAAAAAAAAAAAAAAAAAAAAAAAAAAAAAAAAAAAAAAAAAAAAAAAAAAAAAAAAAAAAAAAAAAAAAAAAAAAAAAAAAAAAAAAAAAAAAAAAAAAAAAAAAAAAAAAAAAAAAAAAAAAAAAAAAAAAAAAAAAAAAAAAAAAAAAAAAAAAAAAAAAAAAAAAAAAAAAAAAAAAAAAAAAAAAAAAAAAAAAAAAAAAAAAAAAAAAAAAAAAAAAAAAAAAAAAAAAAAAAAAAAAAAAAAAAAAAAAAAAAAAAAAAAAAAAAAAAAAAAAAAAAAAAAAAAAAAAAAAAAAAAAAAAAAAAAAAAAAAAAAAAAAAAAAAAAAAAAAAAAAAAAAAAAAAAAAAAAAAAAAAAAAAAAAAAAAAAAAAAAAAAAAAAAAAAAAAAAAAAAAAAAAAAAAAAAAAAAAAAAAAAAAAAAAAAAAAAAAAAAAAAAAAAAAAAAAAAAAAAAAAAAAAAAAAAAAAAAAAAAAAAAAAAAAAAAAAAAAAAAAAAAAAAAAAAAAAAAAAAAAAAAAAAAAAAAAAAAAAAAAAAAAAAAAAAAAAAAAAAAAAAAAAAAAAAAAAAAAAAAAAAAAAAAAAAAAAAAAAAAAAAAAAAAAAAAAAAAAAAAAAAAAAAAAAAAAAAAAAAAAAAAAAAAAAAAAAAAAAAAAAAAAAAAAAAAAAAAAAAAAAAAAAAAAAAAAAAAAAAAAAAAAAAAAAAAAAAAAAAAAAAAAAAAAAAAAAAAAAAAAAAAAAAAAAAAAAAAAAAAAAAAAAAAAAAAAAAAAAAAAAAAAAAAAAAAAAAAAAAAAAAAAAAAAAAAAAAAAAAAAAAAAAAAAAAAAAAAAAAAAAAAAAAAAAAAAAAAAAAAAAAAAAAAAAAAAAAAAAAAAAAAAAAAAAAAAAAAAAAAAAAAAAAAAAAAAAAAAAAAAAAAAAAAAAAAAAAAAAAAAAAAAAAAAAAAAAAAAAAAAAAAAAAAAAAAAAAAAAAAAAAAAAAAAAAAAAAAAAAAAAAAAAAAAAAAAAAAAAAAAAAAAAAAAAAAAAAAAAAAAAAAAAAAAAAAAAAAAAAAAAAAAAAAAAAAAAAAAAAAAAAAAAAAAAAAAAAAAAAAAAAAAAAAAAAAAAAAAAAAAAAAAAAAAAAAAAAAAAAAAAAAAAAAAAAAAAAAAAAAAAAAAAAAAAAAAAAAAAAAAAAAAAAAAAAAAAAAAAAAAAAAAAAAAAAAAAAAAAAAAAAAAAAAAAAAAAAAAAAAAAAAAAAAAAAAAAAAAAAAAAAAAAAAAAAAAAAAAAAAAAAAAAAAAAAAAAAAAAAAAAAAAAAAAAAAAAAAAAAAAAAAAAAAAAAAAAAAAAAAAAAAAAAAAAAAAAAAAAAAAAAAAAAAAAAAAAAAAAAAAAAAAAAAAAAAAAAAAAAAAAAAAAAAAAAAAAAAAAAAAAAAAAAAAAAAAAAAAAAAAAAAAAAAAAAAAAAAAAAAAAAAAAAAAAAAAAAAAAAAAAAAAAAAAAAAAAAAAAAAAAAAAAAAAAAAAAAAAAAAAAAAAAAAAAAAAAAAAAAAAAAAAAAAAAAAAAAAAAAAAAAAAAAAAAAAAAAAAAAAAAAAAAAAAAAAAAAAAAAAAAAAAAAAAAAAAAAAAAAAAAAAAAAAAAAAAAAAAAAAAAAAAAAAAAAAAAAAAAAAAAAAAAAAAAAAAAAAAAAAAAAAAAAAAAAAAAAAAAAAAAAAAAAAAAAAAAAAAAAAAAAAAAAAAAAAAAAAAAAAAAAAAAAAAAAAAAAAAAAAAAAAAAAAAAAAAAAAAAAAAAAAAAAAAAAAAAAAAAAAAAAAAAAAAAAAAAAAAAAAAAAAAAAAAAAAAAAAAAAAAAAAAAAAAAAAAAAAAAAAAAAAAAAAAAAAAAAAAAAAAAAAAAAAAAAAAAAAAAAAAAAAAAAAAAAAAAAAAAAAAAAAAAAAAAAAAAAAAAAAAAAAAAAAAAAAAAAAAAAAAAAAAAAAAAAAAAAAAAAAAAAAAAAAAAAAAAAAAAAAAAAAAAAAAAAAAAAAAAAAAAAAAAAAAAAAAAAAAAAAAAAAAAAAAAAAAAAAAAAAAAAAAAAAAAAAAAAAAAAAAAAAAAAAAAAAAAAAAAAAAAAAAAAAAAAAAAAAAAAAAAAAAAAAAAAAAAAAAAAAAAAAAAAAAAAAAAAAAAAAAAAAAAAAAAAAAAAAAAAAAAAAAAAAAAAAAAAAAAAAAAAAAAAAAAAAAAAAAAAAAAAAAAAAAAAAAAAAAAAAAAAAAAAAAAAAAAAAAAAAAAAAAAAAAAAAAAAAAAAAAAAAAAAAAAAAAAAAAAAAAAAAAAAAAAAAAAAAAAAAAAAAAAAAAAAAAAAAAAAAAAAAAAAAAAAAAAAAAAAAAAAAAAAAAAAAAAAAAAAAAAAAAAAAAAAAAAAAAAAAAAAAAAAAAAAAAAAAAAAAAAAAAAAAAAAAAAAAAAAAAAAAAAAAAAAAAAAAAAAAAAAAAAAAAAAAAAAAAAAAAAAAAAAAAAAAAAAAAAAAAAAAAAAAAAAAAAAAAAAAAAAAAAAAAAAAAAAAAAAAAAAAAAAAAAAAAAAAAAAAAAAAAAAAAAAAAAAAAAAAAAAAAAAAAAAAAAAAAAAAAAAAAAAAAAAAAAAAAAAAAAAAAAAAAAAAAAAAAAAAAAAAAAAAAAAAAAAAAAAAAAAAAAAAAAAAAAAAAAAAAAAAAAAAAAAAAAAAAAAAAAAAAAAAAAAAAAAAAAAAAAAAAAAAAAAAAAAAAAAAAAAAAAAAAAAAAAAAAAAAAAAAAAAAAAAAAAAAAAAAAAAAAAAAAAAAAAAAAAAAAAAAAAAAAAAAAAAAAAAAAAAAAAAAAAAAAAAAAAAAAAAAAAAAAAAAAAAAAAAAAAAAAAAAAAAAAAAAAAAAAAAAAAAAAAAAAAAAAAAAAAAAAAAAAAAAAAAAAAAAAAAAAAAAAAAAAAAAAAAAAAAAAAAAAAAAAAAAAAAAAAAAAAAAAAAAAAAAAAAAAAAAAAAAAAAAAAAAAAAAAAAAAAAAAAAAAAAAAAAAAAAAAAAAAAAAAAAAAAAAAAAAAAAAAAAAAAAAAAAAAAAAAAAAAAAAAAAAAAAAAAAAAAAAAAAAAAAAAAAAAAAAAAAAAAAAAAAAAAAAAAAAAAAAAAAAAAAAAAAAAAAAAAAAAAAAAAAAAAAAAAAAAAAAAAAAAAAAAAAAAAAAAAAAAAAAAAAAAAAAAAAAAAAAAAAAAAAAAAAAAAAAAAAAAAAAAAAAAAAAAAAAAAAAAAAAAAAAAAAAAAAAAAAAAAAAAAAAAAAAAAAAAAAAAAAAAAAAAAAAAAAAAAAAAAAAAAAAAAAAAAAAAAAAAAAAAAAAAAAAAAAAAAAAAAAAAAAAAAAAAAAAAAAAAAAAAAAAAAAAAAAAAAAAAAAAAAAAAAAAAAAAAAAAAAAAAAAAAAAAAAAAAAAAAAAAAAAAAAAAAAAAAAAAAAAAAAAAAAAAAAAAAAAAAAAAAAAAAAAAAAAAAAAAAAAAAAAAAAAAAAAAAAAAAAAAAAAAAAAAAAAAAAAAAAAAAAAAAAAAAAAAAAAAAAAAAAAAAAAAAAAAAAAAAAAAAAAAAAAAAAAAAAAAAAAAAAAAAAAAAAAAAPZYQDZJfzHUtGzMVcWSz427Cfrd+LeR/hcjGNpCboLq23L+3f32HbdQPEX5rIZBMPUUckMJHZJaT9F0JaqF4kcnECQ=</c2pa:manifest></metadata><path d="M0 21.686C0 15.1534 5.36106 9.77738 11.8747 9.77738C16.8901 9.77738 21.156 12.8993 22.8855 17.2347H17.8127C16.4867 15.4424 14.2963 14.2866 11.8747 14.2866C7.78225 14.2866 4.49594 17.5813 4.49594 21.686C4.49594 25.7898 7.78225 29.1425 11.8747 29.1425C14.2963 29.1425 16.4867 27.9867 17.8127 26.1944H22.8855C21.156 30.5301 16.8901 33.5938 11.8747 33.5938C5.36106 33.5938 0 28.2753 0 21.686Z" fill="#B91818"></path><path d="M43.1966 21.686C43.1966 17.5813 39.8528 14.2287 35.7604 14.2287C31.6675 14.2287 28.3238 17.5813 28.3238 21.686C28.3238 25.7898 31.6675 29.0853 35.7604 29.0853C39.8528 29.0853 43.1966 25.7898 43.1966 21.686ZM47.6355 21.686C47.6355 28.2178 42.3318 33.5938 35.7604 33.5938C29.1889 33.5938 23.8853 28.2178 23.8853 21.686C23.8853 15.0958 29.1889 9.77738 35.7604 9.77738C42.3318 9.77738 47.6355 15.0958 47.6355 21.686Z" fill="#B91818"></path><path d="M49.935 33.9258H48.6563C48.6451 33.9258 48.6357 33.9168 48.6357 33.9052V20.2292C48.6357 14.5794 53.2442 9.73945 58.878 9.77796C62.0537 9.79936 64.8252 11.2528 66.6812 13.5683C66.6893 13.5784 66.7037 13.5784 66.7114 13.5683C68.5899 11.2255 71.4623 9.7659 74.6842 9.77757C80.2943 9.79819 84.7573 14.5389 84.7573 20.1647V33.9052C84.7573 33.9168 84.748 33.9258 84.7371 33.9258H83.3975C81.663 33.9258 80.2567 32.5156 80.2567 30.7762V20.1211C80.2567 17.0182 77.7276 14.2845 74.6334 14.2911C71.4824 14.2977 68.9759 16.8739 68.9759 19.9764V30.9104C68.9759 32.5759 67.6293 33.9258 65.9689 33.9258H64.4959C64.4846 33.9258 64.4753 33.9168 64.4753 33.9052V20.1658C64.4753 17.3656 62.5348 14.854 59.7831 14.3759C56.2547 13.7632 53.1945 16.549 53.1945 19.9764V30.6572C53.1945 32.4623 51.7351 33.9258 49.935 33.9258Z" fill="#B91818"></path><path d="M105.284 22.7586C105.862 17.8257 101.655 13.7491 96.7305 14.4229C93.4042 14.878 90.7227 17.5694 90.3149 20.9107C89.7132 25.8436 93.9198 30.0191 98.851 29.3402C102.206 28.8788 104.889 26.1307 105.284 22.7586ZM109.741 23.3904C109.045 28.9722 104.462 33.3958 98.8727 33.8794C95.5945 34.163 92.5565 33.1332 90.2575 31.2885V42.5291C90.2575 44.4458 88.7077 46 86.7963 46H85.7573V21.8522C85.7573 15.229 91.1339 9.77748 97.7977 9.77748C104.97 9.77748 110.653 16.0945 109.741 23.3904Z" fill="#B91818"></path><path d="M122.878 9.77757V14.2911C118.728 14.2911 115.396 17.6904 115.396 21.8523V30.8427C115.396 32.5455 114.02 33.9258 112.322 33.9258H110.837V21.8523C110.837 15.1699 116.273 9.77757 122.878 9.77757Z" fill="#B91818"></path><path d="M143.395 22.8396C144.026 17.9094 139.851 13.7227 134.935 14.3541C131.582 14.7847 128.873 17.499 128.442 20.8618C127.809 25.7927 131.986 29.9826 136.904 29.3492C140.257 28.9178 142.965 26.2024 143.395 22.8396ZM147.959 22.1308V33.9258H146.088C144.636 33.9258 143.458 32.7451 143.458 31.2881C141.431 32.8692 138.971 33.8519 136.233 33.9219C129.769 34.0876 124.219 28.9579 123.894 22.4817C123.54 15.4383 129.164 9.65618 136.137 9.7795C142.644 9.89465 147.959 15.6056 147.959 22.1308Z" fill="#B91818"></path><path d="M196.104 22.5568C196.117 22.3234 196.126 22.0884 196.126 21.8519C196.126 21.5624 196.112 21.2765 196.092 20.9925L196.092 20.9431L196.089 20.9443C195.627 14.6887 190.444 9.77757 184.085 9.77757C179.192 9.77757 175.187 12.77 172.935 17.1283C171.305 20.2845 167.271 29.3543 160.999 29.413C156.849 29.4519 153.518 26.0129 153.518 21.8519C153.518 17.6904 156.849 14.3494 160.999 14.3494C163.454 14.3494 165.722 15.5014 167.019 17.3384C168.147 18.9349 168.421 20.0417 168.473 20.3047C169.418 18.747 170.3 17.0723 171.202 15.457C169.09 12.0697 165.322 9.77757 160.999 9.77757C154.394 9.77757 148.959 15.2286 148.959 21.8519C148.959 28.5334 154.394 33.9258 160.999 33.9258C170.097 33.9258 175.357 22.4969 177.533 18.3035C178.922 15.6247 181.565 14.2911 184.085 14.2911C188.236 14.2911 191.625 17.6904 191.625 21.8519C191.625 26.0129 188.236 29.3543 184.085 29.3543C180.642 29.3543 177.73 27.0516 176.835 23.8923C176.265 24.9057 174.918 27.1345 174.029 28.477C176.181 31.7496 179.876 33.9258 184.085 33.9258C186.97 33.9258 189.613 32.9026 191.683 31.2065C191.965 32.6875 193.262 33.8075 194.82 33.8075H196.184L196.104 22.5568Z" fill="#1B3E7B"></path><path d="M209.225 9.77757V14.2911C205.075 14.2911 201.743 17.6904 201.743 21.8523V30.465C201.743 32.3763 200.198 33.9258 198.292 33.9258H197.185V21.8523C197.185 15.1699 202.62 9.77757 209.225 9.77757Z" fill="#1B3E7B"></path></svg>